# Blender 4.2.2 LTS
# www.blender.org
mtllib 16-sphere.mtl
o Sphere
v 0.000000 -0.191342 0.461940
v 0.000000 0.000000 0.500000
v 0.000000 0.191342 0.461940
v 0.000000 0.461940 0.191342
v 0.073223 -0.461940 0.176777
v 0.135299 -0.353553 0.326641
v 0.176777 -0.191342 0.426777
v 0.191342 0.000000 0.461940
v 0.176777 0.191342 0.426777
v 0.135299 0.353553 0.326641
v 0.073223 0.461940 0.176777
v 0.135299 -0.461940 0.135299
v 0.250000 -0.353553 0.250000
v 0.326641 -0.191342 0.326641
v 0.353553 0.000000 0.353553
v 0.326641 0.191342 0.326641
v 0.250000 0.353553 0.250000
v 0.135299 0.461940 0.135299
v 0.176777 -0.461940 0.073223
v 0.326641 -0.353553 0.135299
v 0.426777 -0.191342 0.176777
v 0.461940 0.000000 0.191342
v 0.426777 0.191342 0.176777
v 0.326641 0.353553 0.135299
v 0.176777 0.461940 0.073223
v 0.191342 -0.461940 -0.000000
v 0.353553 -0.353553 -0.000000
v 0.461940 -0.191342 -0.000000
v 0.500000 0.000000 -0.000000
v 0.461940 0.191342 -0.000000
v 0.353553 0.353553 -0.000000
v 0.191342 0.461940 -0.000000
v 0.176777 -0.461940 -0.073223
v 0.326641 -0.353553 -0.135299
v 0.426777 -0.191342 -0.176777
v 0.461940 0.000000 -0.191342
v 0.426777 0.191342 -0.176777
v 0.326641 0.353553 -0.135299
v 0.176777 0.461940 -0.073223
v 0.135299 -0.461940 -0.135299
v 0.250000 -0.353553 -0.250000
v 0.326641 -0.191342 -0.326641
v 0.353553 0.000000 -0.353553
v 0.326641 0.191342 -0.326641
v 0.250000 0.353553 -0.250000
v 0.135299 0.461940 -0.135299
v 0.073223 -0.461940 -0.176777
v 0.135299 -0.353553 -0.326641
v 0.176777 -0.191342 -0.426777
v 0.191342 0.000000 -0.461940
v 0.176777 0.191342 -0.426777
v 0.135299 0.353553 -0.326641
v 0.073223 0.461940 -0.176777
v -0.000000 -0.461940 -0.191342
v -0.000000 -0.353553 -0.353553
v -0.000000 -0.191342 -0.461940
v -0.000000 0.000000 -0.500000
v -0.000000 0.191342 -0.461940
v -0.000000 0.353553 -0.353553
v -0.000000 0.461940 -0.191342
v 0.000000 0.500000 0.000000
v 0.000000 -0.500000 0.000000
v -0.073223 -0.461940 -0.176777
v -0.135299 -0.353553 -0.326641
v -0.176777 -0.191342 -0.426777
v -0.191342 0.000000 -0.461940
v -0.176777 0.191342 -0.426777
v -0.135299 0.353553 -0.326641
v -0.073223 0.461940 -0.176777
v -0.135299 -0.461940 -0.135299
v -0.250000 -0.353553 -0.250000
v -0.326641 -0.191342 -0.326641
v -0.353554 0.000000 -0.353553
v -0.326641 0.191342 -0.326641
v -0.250000 0.353553 -0.250000
v -0.135299 0.461940 -0.135299
v -0.176777 -0.461940 -0.073223
v -0.326641 -0.353553 -0.135299
v -0.426777 -0.191342 -0.176777
v -0.461940 0.000000 -0.191341
v -0.426777 0.191342 -0.176777
v -0.326641 0.353553 -0.135299
v -0.176777 0.461940 -0.073223
v -0.191342 -0.461940 0.000000
v -0.353553 -0.353553 0.000000
v -0.461940 -0.191342 0.000000
v -0.500000 0.000000 0.000000
v -0.461940 0.191342 0.000000
v -0.353553 0.353553 0.000000
v -0.191342 0.461940 0.000000
v -0.176777 -0.461940 0.073223
v -0.326641 -0.353553 0.135299
v -0.426777 -0.191342 0.176777
v -0.461940 0.000000 0.191342
v -0.426777 0.191342 0.176777
v -0.326641 0.353553 0.135299
v -0.176777 0.461940 0.073223
v -0.135299 -0.461940 0.135299
v -0.250000 -0.353553 0.250000
v -0.326641 -0.191342 0.326641
v -0.353553 0.000000 0.353554
v -0.326641 0.191342 0.326641
v -0.250000 0.353553 0.250000
v -0.135299 0.461940 0.135299
v -0.073223 -0.461940 0.176777
v -0.135299 -0.353553 0.326641
v -0.176776 -0.191342 0.426777
v -0.191341 0.000000 0.461940
v -0.176776 0.191342 0.426777
v -0.135299 0.353553 0.326641
v -0.073223 0.461940 0.176777
v 0.000000 -0.461940 0.191342
v 0.000000 -0.353553 0.353553
v 0.000000 0.353553 0.353553
vn 0.0388 0.9800 0.1949
vn 0.1632 0.5481 0.8203
vn 0.1915 -0.1915 0.9626
vn 0.1098 -0.8264 0.5522
vn 0.1098 0.8264 0.5522
vn 0.1915 0.1915 0.9626
vn 0.1632 -0.5481 0.8203
vn 0.0388 -0.9800 0.1949
vn 0.3128 -0.8264 0.4681
vn 0.3128 0.8264 0.4681
vn 0.5453 0.1915 0.8161
vn 0.4647 -0.5481 0.6954
vn 0.1104 -0.9800 0.1653
vn 0.1104 0.9800 0.1653
vn 0.4647 0.5481 0.6954
vn 0.5453 -0.1915 0.8161
vn 0.4681 0.8264 0.3128
vn 0.8161 0.1915 0.5453
vn 0.6954 -0.5481 0.4647
vn 0.1653 -0.9800 0.1104
vn 0.1653 0.9800 0.1104
vn 0.6954 0.5481 0.4647
vn 0.8161 -0.1915 0.5453
vn 0.4681 -0.8264 0.3128
vn 0.1949 -0.9800 0.0388
vn 0.1949 0.9800 0.0388
vn 0.8203 0.5481 0.1632
vn 0.9626 -0.1915 0.1915
vn 0.5522 -0.8264 0.1098
vn 0.5522 0.8264 0.1098
vn 0.9626 0.1915 0.1915
vn 0.8203 -0.5481 0.1632
vn 0.8203 0.5481 -0.1632
vn 0.9626 -0.1915 -0.1915
vn 0.5522 -0.8264 -0.1098
vn 0.5522 0.8264 -0.1098
vn 0.9626 0.1915 -0.1915
vn 0.8203 -0.5481 -0.1632
vn 0.1949 -0.9800 -0.0388
vn 0.1949 0.9800 -0.0388
vn 0.4681 0.8264 -0.3128
vn 0.8161 0.1915 -0.5453
vn 0.6954 -0.5481 -0.4647
vn 0.1653 -0.9800 -0.1104
vn 0.1653 0.9800 -0.1104
vn 0.6954 0.5481 -0.4647
vn 0.8161 -0.1915 -0.5453
vn 0.4681 -0.8264 -0.3128
vn 0.5453 0.1915 -0.8161
vn 0.4647 -0.5481 -0.6954
vn 0.1104 -0.9800 -0.1653
vn 0.1104 0.9800 -0.1653
vn 0.4647 0.5481 -0.6954
vn 0.5453 -0.1915 -0.8161
vn 0.3128 -0.8264 -0.4681
vn 0.3128 0.8264 -0.4681
vn 0.0388 0.9800 -0.1949
vn 0.1632 0.5481 -0.8203
vn 0.1915 -0.1915 -0.9626
vn 0.1098 -0.8264 -0.5522
vn 0.1098 0.8264 -0.5522
vn 0.1915 0.1915 -0.9626
vn 0.1632 -0.5481 -0.8203
vn 0.0388 -0.9800 -0.1949
vn -0.1915 -0.1915 -0.9626
vn -0.1098 -0.8264 -0.5522
vn -0.1098 0.8264 -0.5522
vn -0.1915 0.1915 -0.9626
vn -0.1632 -0.5481 -0.8203
vn -0.0388 -0.9800 -0.1949
vn -0.0388 0.9800 -0.1949
vn -0.1632 0.5481 -0.8203
vn -0.3128 0.8264 -0.4681
vn -0.5453 0.1915 -0.8161
vn -0.4647 -0.5481 -0.6954
vn -0.1104 -0.9800 -0.1653
vn -0.1104 0.9800 -0.1653
vn -0.4647 0.5481 -0.6954
vn -0.5453 -0.1915 -0.8161
vn -0.3128 -0.8264 -0.4681
vn -0.6954 -0.5481 -0.4647
vn -0.1653 -0.9800 -0.1104
vn -0.1653 0.9800 -0.1104
vn -0.6954 0.5481 -0.4647
vn -0.8161 -0.1915 -0.5453
vn -0.4681 -0.8264 -0.3128
vn -0.4681 0.8264 -0.3128
vn -0.8161 0.1915 -0.5453
vn -0.1949 0.9800 -0.0388
vn -0.8203 0.5481 -0.1632
vn -0.9626 -0.1915 -0.1915
vn -0.5522 -0.8264 -0.1098
vn -0.5522 0.8264 -0.1098
vn -0.9626 0.1915 -0.1915
vn -0.8203 -0.5481 -0.1632
vn -0.1949 -0.9800 -0.0388
vn -0.5522 -0.8264 0.1098
vn -0.5522 0.8264 0.1098
vn -0.9626 0.1915 0.1915
vn -0.8203 -0.5481 0.1632
vn -0.1949 -0.9800 0.0388
vn -0.1949 0.9800 0.0388
vn -0.8203 0.5481 0.1632
vn -0.9626 -0.1915 0.1915
vn -0.4681 0.8264 0.3128
vn -0.8161 0.1915 0.5453
vn -0.6954 -0.5481 0.4647
vn -0.1653 -0.9800 0.1104
vn -0.1653 0.9800 0.1104
vn -0.6954 0.5481 0.4647
vn -0.8161 -0.1915 0.5453
vn -0.4681 -0.8264 0.3128
vn -0.1104 -0.9800 0.1653
vn -0.1104 0.9800 0.1653
vn -0.4647 0.5481 0.6954
vn -0.5453 -0.1915 0.8161
vn -0.3128 -0.8264 0.4681
vn -0.3128 0.8264 0.4681
vn -0.5453 0.1915 0.8161
vn -0.4647 -0.5481 0.6954
vn -0.1632 0.5481 0.8203
vn -0.1915 -0.1915 0.9626
vn -0.1098 -0.8264 0.5522
vn -0.1098 0.8264 0.5522
vn -0.1915 0.1915 0.9626
vn -0.1632 -0.5481 0.8203
vn -0.0388 -0.9800 0.1949
vn -0.0388 0.9800 0.1949
s 0
f 61//1 4//1 11//1
f 114//2 3//2 9//2 10//2
f 2//3 1//3 7//3 8//3
f 113//4 112//4 5//4 6//4
f 4//5 114//5 10//5 11//5
f 3//6 2//6 8//6 9//6
f 1//7 113//7 6//7 7//7
f 112//8 62//8 5//8
f 6//9 5//9 12//9 13//9
f 11//10 10//10 17//10 18//10
f 9//11 8//11 15//11 16//11
f 7//12 6//12 13//12 14//12
f 5//13 62//13 12//13
f 61//14 11//14 18//14
f 10//15 9//15 16//15 17//15
f 8//16 7//16 14//16 15//16
f 18//17 17//17 24//17 25//17
f 16//18 15//18 22//18 23//18
f 14//19 13//19 20//19 21//19
f 12//20 62//20 19//20
f 61//21 18//21 25//21
f 17//22 16//22 23//22 24//22
f 15//23 14//23 21//23 22//23
f 13//24 12//24 19//24 20//24
f 19//25 62//25 26//25
f 61//26 25//26 32//26
f 24//27 23//27 30//27 31//27
f 22//28 21//28 28//28 29//28
f 20//29 19//29 26//29 27//29
f 25//30 24//30 31//30 32//30
f 23//31 22//31 29//31 30//31
f 21//32 20//32 27//32 28//32
f 31//33 30//33 37//33 38//33
f 29//34 28//34 35//34 36//34
f 27//35 26//35 33//35 34//35
f 32//36 31//36 38//36 39//36
f 30//37 29//37 36//37 37//37
f 28//38 27//38 34//38 35//38
f 26//39 62//39 33//39
f 61//40 32//40 39//40
f 39//41 38//41 45//41 46//41
f 37//42 36//42 43//42 44//42
f 35//43 34//43 41//43 42//43
f 33//44 62//44 40//44
f 61//45 39//45 46//45
f 38//46 37//46 44//46 45//46
f 36//47 35//47 42//47 43//47
f 34//48 33//48 40//48 41//48
f 44//49 43//49 50//49 51//49
f 42//50 41//50 48//50 49//50
f 40//51 62//51 47//51
f 61//52 46//52 53//52
f 45//53 44//53 51//53 52//53
f 43//54 42//54 49//54 50//54
f 41//55 40//55 47//55 48//55
f 46//56 45//56 52//56 53//56
f 61//57 53//57 60//57
f 52//58 51//58 58//58 59//58
f 50//59 49//59 56//59 57//59
f 48//60 47//60 54//60 55//60
f 53//61 52//61 59//61 60//61
f 51//62 50//62 57//62 58//62
f 49//63 48//63 55//63 56//63
f 47//64 62//64 54//64
f 57//65 56//65 65//65 66//65
f 55//66 54//66 63//66 64//66
f 60//67 59//67 68//67 69//67
f 58//68 57//68 66//68 67//68
f 56//69 55//69 64//69 65//69
f 54//70 62//70 63//70
f 61//71 60//71 69//71
f 59//72 58//72 67//72 68//72
f 69//73 68//73 75//73 76//73
f 67//74 66//74 73//74 74//74
f 65//75 64//75 71//75 72//75
f 63//76 62//76 70//76
f 61//77 69//77 76//77
f 68//78 67//78 74//78 75//78
f 66//79 65//79 72//79 73//79
f 64//80 63//80 70//80 71//80
f 72//81 71//81 78//81 79//81
f 70//82 62//82 77//82
f 61//83 76//83 83//83
f 75//84 74//84 81//84 82//84
f 73//85 72//85 79//85 80//85
f 71//86 70//86 77//86 78//86
f 76//87 75//87 82//87 83//87
f 74//88 73//88 80//88 81//88
f 61//89 83//89 90//89
f 82//90 81//90 88//90 89//90
f 80//91 79//91 86//91 87//91
f 78//92 77//92 84//92 85//92
f 83//93 82//93 89//93 90//93
f 81//94 80//94 87//94 88//94
f 79//95 78//95 85//95 86//95
f 77//96 62//96 84//96
f 85//97 84//97 91//97 92//97
f 90//98 89//98 96//98 97//98
f 88//99 87//99 94//99 95//99
f 86//100 85//100 92//100 93//100
f 84//101 62//101 91//101
f 61//102 90//102 97//102
f 89//103 88//103 95//103 96//103
f 87//104 86//104 93//104 94//104
f 97//105 96//105 103//105 104//105
f 95//106 94//106 101//106 102//106
f 93//107 92//107 99//107 100//107
f 91//108 62//108 98//108
f 61//109 97//109 104//109
f 96//110 95//110 102//110 103//110
f 94//111 93//111 100//111 101//111
f 92//112 91//112 98//112 99//112
f 98//113 62//113 105//113
f 61//114 104//114 111//114
f 103//115 102//115 109//115 110//115
f 101//116 100//116 107//116 108//116
f 99//117 98//117 105//117 106//117
f 104//118 103//118 110//118 111//118
f 102//119 101//119 108//119 109//119
f 100//120 99//120 106//120 107//120
f 110//121 109//121 3//121 114//121
f 108//122 107//122 1//122 2//122
f 106//123 105//123 112//123 113//123
f 111//124 110//124 114//124 4//124
f 109//125 108//125 2//125 3//125
f 107//126 106//126 113//126 1//126
f 105//127 62//127 112//127
f 61//128 111//128 4//128
