# Blender 4.2.2 LTS
# www.blender.org
mtllib 8-sphere.mtl
o Sphere
v 0.135299 -0.461940 0.135299
v 0.250000 -0.353553 0.250000
v 0.326641 -0.191342 0.326641
v 0.353553 0.000000 0.353553
v 0.326641 0.191342 0.326641
v 0.250000 0.353553 0.250000
v 0.135299 0.461940 0.135299
v 0.191342 -0.461940 0.000000
v 0.353553 -0.353553 0.000000
v 0.461940 -0.191342 0.000000
v 0.500000 0.000000 0.000000
v 0.461940 0.191342 0.000000
v 0.353553 0.353553 0.000000
v 0.191342 0.461940 0.000000
v 0.135299 -0.461940 -0.135299
v 0.250000 -0.353553 -0.250000
v 0.326641 -0.191342 -0.326641
v 0.353553 0.000000 -0.353553
v 0.326641 0.191342 -0.326641
v 0.250000 0.353553 -0.250000
v 0.135299 0.461940 -0.135299
v 0.000000 -0.461940 -0.191342
v 0.000000 -0.353553 -0.353553
v 0.000000 -0.191342 -0.461940
v 0.000000 0.000000 -0.500000
v 0.000000 0.191342 -0.461940
v 0.000000 0.353553 -0.353553
v 0.000000 0.461940 -0.191342
v -0.135299 -0.461940 -0.135299
v -0.250000 -0.353553 -0.250000
v -0.326641 -0.191342 -0.326641
v -0.353553 0.000000 -0.353553
v -0.326641 0.191342 -0.326641
v -0.250000 0.353553 -0.250000
v -0.135299 0.461940 -0.135299
v -0.191342 -0.461940 0.000000
v -0.353553 -0.353553 0.000000
v -0.461940 -0.191342 0.000000
v -0.500000 0.000000 0.000000
v -0.461940 0.191342 0.000000
v -0.353553 0.353553 0.000000
v -0.191342 0.461940 0.000000
v -0.135299 -0.461940 0.135299
v -0.250000 -0.353553 0.250000
v -0.326641 -0.191342 0.326641
v -0.353553 0.000000 0.353553
v -0.326641 0.191342 0.326641
v -0.250000 0.353553 0.250000
v -0.135299 0.461940 0.135299
v 0.000000 0.500000 0.000000
v 0.000000 -0.500000 0.000000
v 0.000000 -0.461940 0.191342
v 0.000000 -0.353553 0.353553
v 0.000000 -0.191342 0.461940
v 0.000000 0.000000 0.500000
v 0.000000 0.191342 0.461940
v 0.000000 0.353553 0.353553
v 0.000000 0.461940 0.191342
vn 0.2243 -0.8103 0.5414
vn 0.2243 0.8103 0.5414
vn 0.3764 0.1807 0.9087
vn 0.3256 -0.5253 0.7862
vn 0.0805 -0.9776 0.1945
vn 0.0805 0.9776 0.1945
vn 0.3256 0.5253 0.7862
vn 0.3764 -0.1807 0.9087
vn 0.9087 0.1807 0.3764
vn 0.7862 -0.5253 0.3256
vn 0.1945 -0.9776 0.0805
vn 0.1945 0.9776 0.0805
vn 0.7862 0.5253 0.3256
vn 0.9087 -0.1807 0.3764
vn 0.5414 -0.8103 0.2243
vn 0.5414 0.8103 0.2243
vn 0.1945 0.9776 -0.0805
vn 0.7862 0.5253 -0.3256
vn 0.9087 -0.1807 -0.3764
vn 0.5414 -0.8103 -0.2243
vn 0.5414 0.8103 -0.2243
vn 0.9087 0.1807 -0.3764
vn 0.7862 -0.5253 -0.3256
vn 0.1945 -0.9776 -0.0805
vn 0.3764 -0.1807 -0.9087
vn 0.2243 -0.8103 -0.5414
vn 0.2243 0.8103 -0.5414
vn 0.3764 0.1807 -0.9087
vn 0.3256 -0.5253 -0.7862
vn 0.0805 -0.9776 -0.1945
vn 0.0805 0.9776 -0.1945
vn 0.3256 0.5253 -0.7862
vn -0.2243 0.8103 -0.5414
vn -0.3764 0.1807 -0.9087
vn -0.3256 -0.5253 -0.7862
vn -0.0805 -0.9776 -0.1945
vn -0.0805 0.9776 -0.1945
vn -0.3256 0.5253 -0.7862
vn -0.3764 -0.1807 -0.9087
vn -0.2243 -0.8103 -0.5414
vn -0.7862 -0.5253 -0.3256
vn -0.1945 -0.9776 -0.0805
vn -0.1945 0.9776 -0.0805
vn -0.7862 0.5253 -0.3256
vn -0.9087 -0.1807 -0.3764
vn -0.5414 -0.8103 -0.2243
vn -0.5414 0.8103 -0.2243
vn -0.9087 0.1807 -0.3764
vn -0.1945 0.9776 0.0805
vn -0.7862 0.5253 0.3256
vn -0.9087 -0.1807 0.3764
vn -0.5414 -0.8103 0.2243
vn -0.5414 0.8103 0.2243
vn -0.9087 0.1807 0.3764
vn -0.7862 -0.5253 0.3256
vn -0.1945 -0.9776 0.0805
vn -0.2243 -0.8103 0.5414
vn -0.2243 0.8103 0.5414
vn -0.3764 0.1807 0.9087
vn -0.3256 -0.5253 0.7862
vn -0.0805 -0.9776 0.1945
vn -0.0805 0.9776 0.1945
vn -0.3256 0.5253 0.7862
vn -0.3764 -0.1807 0.9087
s 0
f 53//1 52//1 1//1 2//1
f 58//2 57//2 6//2 7//2
f 56//3 55//3 4//3 5//3
f 54//4 53//4 2//4 3//4
f 52//5 51//5 1//5
f 50//6 58//6 7//6
f 57//7 56//7 5//7 6//7
f 55//8 54//8 3//8 4//8
f 5//9 4//9 11//9 12//9
f 3//10 2//10 9//10 10//10
f 1//11 51//11 8//11
f 50//12 7//12 14//12
f 6//13 5//13 12//13 13//13
f 4//14 3//14 10//14 11//14
f 2//15 1//15 8//15 9//15
f 7//16 6//16 13//16 14//16
f 50//17 14//17 21//17
f 13//18 12//18 19//18 20//18
f 11//19 10//19 17//19 18//19
f 9//20 8//20 15//20 16//20
f 14//21 13//21 20//21 21//21
f 12//22 11//22 18//22 19//22
f 10//23 9//23 16//23 17//23
f 8//24 51//24 15//24
f 18//25 17//25 24//25 25//25
f 16//26 15//26 22//26 23//26
f 21//27 20//27 27//27 28//27
f 19//28 18//28 25//28 26//28
f 17//29 16//29 23//29 24//29
f 15//30 51//30 22//30
f 50//31 21//31 28//31
f 20//32 19//32 26//32 27//32
f 28//33 27//33 34//33 35//33
f 26//34 25//34 32//34 33//34
f 24//35 23//35 30//35 31//35
f 22//36 51//36 29//36
f 50//37 28//37 35//37
f 27//38 26//38 33//38 34//38
f 25//39 24//39 31//39 32//39
f 23//40 22//40 29//40 30//40
f 31//41 30//41 37//41 38//41
f 29//42 51//42 36//42
f 50//43 35//43 42//43
f 34//44 33//44 40//44 41//44
f 32//45 31//45 38//45 39//45
f 30//46 29//46 36//46 37//46
f 35//47 34//47 41//47 42//47
f 33//48 32//48 39//48 40//48
f 50//49 42//49 49//49
f 41//50 40//50 47//50 48//50
f 39//51 38//51 45//51 46//51
f 37//52 36//52 43//52 44//52
f 42//53 41//53 48//53 49//53
f 40//54 39//54 46//54 47//54
f 38//55 37//55 44//55 45//55
f 36//56 51//56 43//56
f 44//57 43//57 52//57 53//57
f 49//58 48//58 57//58 58//58
f 47//59 46//59 55//59 56//59
f 45//60 44//60 53//60 54//60
f 43//61 51//61 52//61
f 50//62 49//62 58//62
f 48//63 47//63 56//63 57//63
f 46//64 45//64 54//64 55//64
